<svg xmlns="http://www.w3.org/2000/svg" id="Layer_1" data-name="Layer 1" viewBox="0 0 849.3 164"><defs><style>      .cls-1 {        fill: #c7d0e4;      }      .cls-1, .cls-2, .cls-3, .cls-4, .cls-5, .cls-6, .cls-7, .cls-8, .cls-9, .cls-10, .cls-11, .cls-12, .cls-13, .cls-14, .cls-15, .cls-16, .cls-17, .cls-18, .cls-19, .cls-20, .cls-21, .cls-22, .cls-23, .cls-24, .cls-25, .cls-26, .cls-27, .cls-28, .cls-29, .cls-30, .cls-31, .cls-32, .cls-33, .cls-34, .cls-35, .cls-36, .cls-37, .cls-38, .cls-39, .cls-40, .cls-41, .cls-42, .cls-43, .cls-44, .cls-45, .cls-46, .cls-47, .cls-48, .cls-49, .cls-50, .cls-51, .cls-52, .cls-53, .cls-54, .cls-55, .cls-56, .cls-57, .cls-58, .cls-59, .cls-60, .cls-61, .cls-62, .cls-63, .cls-64, .cls-65, .cls-66, .cls-67, .cls-68, .cls-69, .cls-70, .cls-71, .cls-72, .cls-73, .cls-74, .cls-75, .cls-76 {        stroke-width: 0px;      }      .cls-2 {        fill: #738abc;      }      .cls-3 {        fill: #e3e8f1;      }      .cls-4 {        fill: #4463a5;      }      .cls-5 {        fill: #dce1ed;      }      .cls-6 {        fill: #4666a6;      }      .cls-7 {        fill: #fbfcfc;      }      .cls-8 {        fill: #adbbd7;      }      .cls-9 {        fill: #4f6dab;      }      .cls-10 {        fill: #3f60a3;      }      .cls-11 {        fill: #fdfdfd;      }      .cls-12 {        fill: #8fa2c9;      }      .cls-13 {        fill: #6f88ba;      }      .cls-14 {        fill: #fbfbfc;      }      .cls-15 {        fill: #7f95c2;      }      .cls-16 {        fill: #4363a5;      }      .cls-17 {        fill: #4564a6;      }      .cls-18 {        fill: #758dbd;      }      .cls-19 {        fill: #3e5fa2;      }      .cls-20 {        fill: #516eab;      }      .cls-21 {        fill: #4262a5;      }      .cls-22 {        fill: #4060a3;      }      .cls-23 {        fill: #4666a7;      }      .cls-24 {        fill: #4262a4;      }      .cls-25 {        fill: #4a69a8;      }      .cls-26 {        fill: #e6eaf2;      }      .cls-27 {        fill: #f5f6f9;      }      .cls-28 {        fill: #5572ae;      }      .cls-29 {        fill: #5e79b2;      }      .cls-30 {        fill: #4767a7;      }      .cls-31 {        fill: #fcfcfd;      }      .cls-32 {        fill: #4061a4;      }      .cls-33 {        fill: #f6f7fa;      }      .cls-34 {        fill: #4665a6;      }      .cls-35 {        fill: #6d86b9;      }      .cls-36 {        fill: #f2f4f8;      }      .cls-37 {        fill: #f9fafb;      }      .cls-38 {        fill: #f4f6f9;      }      .cls-39 {        fill: #d7ddeb;      }      .cls-40 {        fill: #f8f9fb;      }      .cls-41 {        fill: #e2e6f0;      }      .cls-42 {        fill: #4c6aa9;      }      .cls-43 {        fill: #c6d0e3;      }      .cls-44 {        fill: #edeff5;      }      .cls-45 {        fill: #768dbd;      }      .cls-46 {        fill: #6f87ba;      }      .cls-47 {        fill: #ced6e7;      }      .cls-48 {        fill: #617cb3;      }      .cls-49 {        fill: #9fb0d1;      }      .cls-50 {        fill: #b7c3dc;      }      .cls-51 {        fill: #4565a6;      }      .cls-52 {        fill: #748bbc;      }      .cls-53 {        fill: #889cc6;      }      .cls-54 {        fill: #3f5fa3;      }      .cls-55 {        fill: #4162a4;      }      .cls-56 {        fill: #5471ad;      }      .cls-57 {        fill: #5370ad;      }      .cls-58 {        fill: #5875af;      }      .cls-59 {        fill: #4464a5;      }      .cls-60 {        fill: #7c93c0;      }      .cls-61 {        fill: #fff;      }      .cls-62 {        fill: #4766a7;      }      .cls-63 {        fill: #f0f3f7;      }      .cls-64 {        fill: #e0e5f0;      }      .cls-65 {        fill: #5270ac;      }      .cls-66 {        fill: #4464a6;      }      .cls-67 {        fill: #f29214;      }      .cls-68 {        fill: #6a84b8;      }      .cls-69 {        fill: #4867a7;      }      .cls-70 {        fill: #f7c788;      }      .cls-71 {        fill: #bbc6de;      }      .cls-72 {        fill: #4263a5;      }      .cls-73 {        fill: #fcfcfc;      }      .cls-74 {        fill: #4b6aa9;      }      .cls-75 {        fill: #9cadcf;      }      .cls-76 {        fill: #748cbc;      }    </style></defs><g><path class="cls-61" d="M271.4,100c.5,4.3,1.2,5.9,3.4,6.6,1.3.4,2.9.5,3.7.6.9,0,1.2.2,1.2.7s-.5.7-1.6.7c-5.5,0-10.8,0-18.3-.4-1.2,0-1.5-.5-1.5-.8s.3-.5.7-.7c1.1-.4,1.1-.8.9-3.7l-2.4-23.5-13.5,25.4c-1.8,3.4-2.2,3.7-2.7,3.7s-1.1-.7-3-3.5c-2.3-3.7-6.3-11.2-8.8-15.4-1.1-1.9-4-7.3-5.3-9.5l-1.9,18.5c-.3,2.8-.3,4.3-.3,5.3,0,1.9.7,2.7,2.3,3,1,.2,1.6.3,2.4.3s1.2.2,1.2.6-.3.7-1.3.7c-2.9,0-6.5-.2-8.5-.2s-5.1.2-7.6.2-1.4,0-1.4-.7.4-.7,1.3-.7,1.2,0,2-.2c1.9-.4,2.6-1.9,3.2-6.2l6-40.4c.3-2,.7-2.6,1.4-2.6s1.2.7,2.6,2.7l18.8,31.5,18-31.8c1.1-1.7,1.6-2.4,2.2-2.4s1.1.9,1.2,2.6l5.4,39.7h.2Z"></path><path class="cls-61" d="M282.6,83.9c0-13.1,8.8-26,28.1-26s27.1,11.2,27.1,24.5-10.4,27-27.6,27-27.7-13.9-27.7-25.6h.1ZM324.7,85.3c0-10.9-4.5-23.3-16.2-23.3s-12.8,3.4-12.8,18.9,5.2,24.3,16.5,24.3,12.5-1.8,12.5-19.9Z"></path><path class="cls-61" d="M361.5,87.8c0,9.1,1.4,12.9,5,15.4,2.7,1.8,4.9,1.8,6.6,1.8s4.9-.5,7.2-2.4c3.7-3.2,3.7-10.1,3.7-16.8v-7.9c0-9.7,0-11.4-.1-13.5-.1-2.5-.7-3.6-2.8-4s-1.1,0-2.4-.3c-.9,0-1.2-.3-1.2-.7s.3-.7,1.5-.7c3.7,0,7.8.2,8.8.2s5.5-.2,8.7-.2,1.4.2,1.4.7-.3.6-1.1.7c-.7,0-1.1,0-2,.3-1.8.3-2.3,1.3-2.5,4-.1,2.1-.2,3.8-.2,13.5v6.4c0,7.5-.3,15.6-6.7,20.8-4.1,3.4-9.2,4.3-13.7,4.3s-11.6-.9-15.6-4.4c-3.5-2.9-6.1-7.7-6.1-17.1v-10c0-10.2,0-12-.2-14.1-.1-1.8-.5-2.7-2-3.2-.7-.3-2.2-.4-2.8-.5-1,0-1.4-.3-1.4-.7s.5-.6,1.8-.6c2.8,0,9.5.2,10.1.2s8.3-.2,10.7-.2,1.4.2,1.4.6-.3.7-1.2.7-1.5,0-2.2.3c-1.8.4-2.2,1.8-2.3,3.9-.1,2.1-.2,5.2-.2,13.6v9.9h-.2Z"></path><path class="cls-61" d="M408.2,61c0-2,.3-3.2,1.1-3.2s.9.2,2.6,1.6c2.8,2.3,6.2,5.6,21.2,19.4,6.7,6.2,11.2,10.6,13,12.2l-.4-24.6c-.1-3.7-.5-5.4-3.1-5.8-.9-.2-2-.3-2.9-.3s-1.2-.3-1.2-.7.6-.7,1.3-.7c2.6,0,6.9.2,9.5.2s4.7-.2,7.5-.2,1.4.2,1.4.6-.3.7-1.1.7-1.2,0-1.6.2c-2.2.3-2.8,1.4-3,5.5-.5,13.2-.5,26.3-.8,39.6,0,3.4-.5,4.1-1.3,4.1s-3.1-1.6-7.4-5.3c-4.5-3.9-10.2-9.1-14.2-12.7-3.7-3.4-10.2-9.5-15-14.2l.7,22.4c.1,4.7.4,6.5,2.2,7.2,1,.3,2.2.3,3.5.5,1,0,1.3.3,1.3.7s-.5.7-1.6.7c-2.3,0-4.4,0-8.5-.2-1.5,0-6.4.2-8.9.2s-1.4,0-1.4-.7.3-.7,1.2-.7,1.4,0,2.2-.2c2.6-.4,2.9-2,3.1-8.1.3-13.5.2-29.4.6-37.8v-.4Z"></path><path class="cls-61" d="M491.3,89.5c0,5.1,0,11.2.3,14,.1,1.7.6,3.1,2.6,3.4.9,0,1.6.2,2.8.3,1.1,0,1.3.3,1.3.7s-.3.6-1.5.6c-4.5,0-10.8-.2-11.9-.2s-7.5.2-9.7.2-1.5,0-1.5-.7.5-.7,1.3-.7,1.4,0,2.1-.3c1.4-.3,1.9-1.7,2.1-3.6.3-2.8.4-7.5.4-13.9v-25.8c-2.6,0-6.6,0-9.9,0-3.7.2-5.1,1.1-6,3.4-.3.7-.5,1.1-.6,1.5-.1.5-.3,1.1-.8,1.1s-.6-.5-.5-1.3c.3-2.7,1-6.2,1.4-8.7.1-1,.3-1.6.7-1.6s.7.2,2.2.5c1.2.3,4.8.5,7.3.5h28.6c2,0,3.2,0,4.1-.3,1.1-.2,1.6-.4,2-.4s.7.4.7,2-.4,7-.5,8.7c0,.9-.3,1.3-.7,1.3s-.7-.4-.7-1.2,0-1-.1-1.3c-.3-2-1.2-3.6-5.1-3.9-2.2-.2-5.6-.3-10.6-.3v25.8h.2Z"></path><path class="cls-61" d="M540.3,102.2c-6.4-5.5-8.3-12.3-8.3-19.3s1.5-12.6,8.1-18.2c5.7-4.8,12.2-6.8,21.7-6.8s6.8.4,9.3.8c3,.5,4.5.8,6.5.9.7,0,.7.5.7.9s-.2,2.1-.3,4.3c0,2.2,0,6-.2,7.7,0,1-.2,1.6-.8,1.6s-.7-.5-.8-1.4c0-1.4-.3-4.1-2.5-6.4-2.3-2.4-6.9-4.1-13.3-4.1s-7.1.9-9.7,3.2c-4,3.5-5.8,9.6-5.8,16.6,0,13.5,7.4,22.6,18.4,22.6s8.7-.5,11.3-3.4c.9-1,1.6-2.4,2.2-4.4.3-1.4.5-1.8,1.1-1.8s.5.7.5,1.2c0,1.1-.8,6.8-1.4,10,0,1-.6,1.5-1.7,1.9-2.6,1.1-7.1,1.5-11.3,1.5-8.5,0-17-1.4-23.9-7.2l.2-.2Z"></path><path class="cls-61" d="M598.8,94.9c-.3,0-.5,0-.6.5l-2,5.4c-.7,1.7-1.1,3.4-1.1,4.2,0,1.2.6,1.8,2,2s1.8.2,2.3.3c1,0,1.2.3,1.2.7s-.5.7-1.4.7c-3,0-5.2-.2-8.7-.2s-5.1.2-8.3.2-1.3-.3-1.3-.7.5-.7,1.2-.7,1.4,0,2.1-.3c2.3-.5,3.6-2.5,5-5.7l17.5-39.7c1.2-2.8,2-3.8,2.7-3.8s1.2.9,2.4,3.3c1.7,3.7,12.7,28.8,17.2,38.8,2.2,5.1,3.7,6.7,6,7,.7.2,1.5.2,2.1.3.9,0,1.2.3,1.2.7s-.5.7-1.7.7c-6.4,0-13.9,0-18.1-.2-1.1,0-1.4-.2-1.4-.6s.3-.7.9-.8c.7,0,1-.6.8-1.2l-4.4-10.4c0-.3-.3-.4-.5-.4h-15.1ZM611.9,89.7c.4,0,.4-.2.3-.3l-5.8-14.1c-.2-.5-.3-.3-.5,0l-5.6,14.1c0,.2,0,.3.3.3h11.3Z"></path><path class="cls-61" d="M644.1,77.9c0-10.2,0-11.5-.2-13.6,0-2.7-.9-3.5-2.5-3.9-1-.2-2-.2-2.6-.3-.8,0-1.2-.3-1.2-.7s.5-.6,1.4-.6c2.8,0,9.1.2,10.1.2s7.6-.2,10.6-.2c6.2,0,10.5.6,13.4,2.2,3.2,1.7,6,5.1,6,10.1s-3.2,9.7-8.8,13.2c4,5.8,8.8,12.8,12.8,17.4,3.5,3.9,5.1,5,6.9,5.3.7,0,1.1,0,1.6.2.7,0,1.1.3,1.1.7,0,.6-.7.7-1.3.7h-5.9c-6.8,0-9.7-.7-12-2.2-2.1-1.2-4.2-4.1-6.8-8.2-3-5-4.5-7.7-5.7-9.5,0-.2-.5-.4-.8-.4h-4.3c-.3,0-.5,0-.5.5v3.4c0,5.2,0,8.3.3,11,0,1.7.6,3.2,2.6,3.6.9.3,1.6.3,3,.4,1.1,0,1.2.3,1.2.7s-.5.6-1.4.6c-4.4,0-11.6-.2-12-.2-.8,0-7.2.2-9.4.2s-1.3-.2-1.3-.7.5-.7,1.2-.7,1.5,0,2.2-.3c1.3-.3,1.8-1.5,2-3.7.3-2.8.3-7.4.3-13.7v-11.6h0ZM655.4,82.3c0,.5.2.8.6,1,1.2.7,3.2.9,5.1.9s3.1-.3,4.1-1.1c1.4-1.1,2.6-3.9,2.6-8.3,0-9.3-5.9-11.8-9.3-11.8s-2.2,0-2.6.3c-.3,0-.4.2-.4.7v18.3h0Z"></path><path class="cls-61" d="M749.8,100c.5,4.3,1.2,5.9,3.4,6.6,1.3.4,2.9.5,3.7.6.9,0,1.2.2,1.2.7s-.5.7-1.6.7c-5.5,0-10.8,0-18.3-.4-1.2,0-1.5-.5-1.5-.8s.3-.5.7-.7c1.1-.4,1.1-.8.9-3.7l-2.4-23.5-13.5,25.4c-1.8,3.4-2.2,3.7-2.7,3.7s-1.1-.7-3-3.5c-2.3-3.7-6.3-11.2-8.8-15.4-1.1-1.9-4-7.3-5.3-9.5l-1.9,18.5c-.3,2.8-.3,4.3-.3,5.3,0,1.9.7,2.7,2.3,3,1,.2,1.6.3,2.4.3s1.2.2,1.2.6-.3.7-1.3.7c-2.9,0-6.5-.2-8.5-.2s-5.1.2-7.6.2-1.4,0-1.4-.7.4-.7,1.3-.7,1.2,0,2-.2c1.9-.4,2.6-1.9,3.2-6.2l6-40.4c.3-2,.7-2.6,1.4-2.6s1.2.7,2.6,2.7l18.8,31.5,18-31.8c1.1-1.7,1.6-2.4,2.2-2.4s1.1.9,1.2,2.6l5.4,39.7h.2Z"></path><path class="cls-61" d="M766.4,77.9c0-10.7,0-12-.2-14.1,0-1.9-.7-3-2.4-3.4-.6,0-1.5,0-2.2-.2-.9,0-1.2-.3-1.2-.7s.4-.6,1.4-.6c3.7,0,6.9.2,9.8.2h18.5c1,0,2.9,0,3.5-.3.5,0,.8-.3,1.1-.3s.4.3.4.6,0,1-.3,2.9c-.2,1.3-.3,3.6-.5,7,0,.5-.3.9-.7.9s-.6-.3-.7-.9c0-.7,0-1.4-.3-2.3-.3-1.5-1.2-2.4-4.3-2.6-2.2-.2-7.9-.3-9.9-.3s-.5.2-.5.7v14.5c0,.5,0,.8.5.8h9.5c3.2,0,4.1-.3,4.8-1.5.4-.6.6-.9.9-.9s.4.4.4.8c0,.7-.3,3-.5,5.6v5.5c0,.8-.2,1.2-.6,1.2s-.6-.5-.7-1.1c0-.5,0-1-.2-1.5-.3-1.9-1.2-3-4.4-3.2-1.8,0-7.2-.3-9.3-.3s-.4.3-.4.9v13.1c0,4.6,1,5.7,8.3,5.7s4.3,0,6.1-.8c1.8-.7,2.6-2.2,3.2-5.2,0-.8.4-1.2.8-1.2s.6.7.6,1.4c0,2.6-.7,7.6-1.1,8.8-.5,1.7-.9,1.8-3.4,1.8-9.1,0-14-.4-20.9-.4s-5.8.2-9.5.2-1.6-.2-1.6-.7.3-.7,1.3-.7,1.4,0,2-.3c1.8-.3,2.1-2.8,2.2-6.9,0-2.6.2-6.5.2-10.6v-11.6h.3Z"></path><path class="cls-61" d="M821.1,89.5c0,6.6-.2,11.4.9,12.7.9,1.2,2.2,1.6,7.6,1.6s5.7,0,7.6-1.1c1.6-.7,2.7-2.4,3.4-5.5.2-.7.3-1.2.9-1.2s.5.3.5,1.2c0,1.5-.7,7.8-1.4,9.7-.5,1.7-1.1,1.8-3.7,1.8-9.1,0-15.2-.4-22.1-.4s-6.6.2-10.2.2-1.4,0-1.4-.7.4-.6,1.3-.6,1.5,0,2.2-.3c2.4-.4,2.4-1.6,2.6-6.8,0-2.6.2-6.6.2-10.6v-11.6c0-10.7,0-11.9-.2-14,0-1.8-.6-3-2.2-3.4-.6-.2-1.6-.3-2.6-.3s-1.4,0-1.4-.7.7-.7,2-.7c3.7,0,7.2.2,9.7.2s8.7-.2,11.1-.2,1.6.2,1.6.6c0,.6-.7.7-1.6.7s-1.3,0-2.2.3c-1.8.3-2.2,1.6-2.4,3.9,0,2.1-.2,3.4-.2,14.3v11h0Z"></path></g><g><path class="cls-19" d="M197.6,144c-1.3-1.9-3.1-3.3-5.2-4.4-2.2-1.1-4.6-1.7-7.1-1.9-.6,0-.6-.3-.3-.7.7-.8.9-1.7,1.2-2.7.3-.9.5-1.7,1-2.5.8-1.3,2.1-2,3.5-2.5,1.3-.5,2.6-.9,4-1.4-.5-.4-1-.7-1.5-.8-4.5-1.3-8.7-1.1-12.4,2.1-1.3,1.1-2.7,2-4.5,1.7-.5,0-1.1-.2-1.6-.2-1.5-.2-3-.5-4.4.3-.2.1-.4,0-.5-.1-.6-.9-1.4-1.3-2.4-1.5-2.7-.8-5.2-1.9-8-2.4,0-.4.3-.5.5-.8,9.7-12.2,15.2-26.1,16.3-41.6.6-7.9-.2-15.8-2.2-23.5-2.9-11.1-8.1-21.1-15.6-29.8-7-8.1-15.4-14.5-25.1-19.1-12-5.7-24.7-8-38-7.1-5.9.4-11.7,1.4-17.3,3.2-13.4,4.2-24.9,11.5-34.3,21.9-5.6,6.2-10,13.2-13.2,20.8-4.2,9.9-6,20.2-5.7,31,.1,4.6.7,9.2,1.7,13.7,2.2,9.8,6.2,18.7,11.9,26.9,1.1,1.6,2.3,3,3.5,4.6-.3,0-.5.1-.7.2-1.9.4-3.8.8-5.8,1.3-1.5.4-3.1.8-4.2,2.1-.2.2-.3.3-.7.2-.8-.5-1.7-.5-2.6-.4-3.3.5-6.3-.2-9.2-2.1-4-2.6-8.3-2.1-12.6-.3.4.2.7.3.9.4,1.3.5,2.5,1,3.8,1.5,1.6.6,2.8,1.7,3.4,3.3.6,1.6,1.1,3.3,2.2,4.8-2.7.2-5.2.7-7.6,1.8-2.3,1.1-4.3,2.7-5.9,4.9,1.8,0,3.4-.2,5.1-.1,1.1,0,2.2.3,3.1,1,1,.8,2.1,1.5,3.1,2.3.4.3.8.6,1.3.8,2.3,1,4.6,1.2,7,.9.7,0,1,0,1.1.8.2,1.7,1.3,2.7,2.9,3,3.4.7,6.6.5,9.7-1,1.7-.8,3.1-2,3.6-3.9,0-.3.3-.4.6-.5,1.9-.6,3.7-1.1,5.6-1.5,5.1-1.1,10.2-1.8,15.4-2.3.6,0,1.1,0,1.6.3,8,4.5,16.5,7.4,25.6,8.9,3.7.6,7.5.9,11.3.9,0,0,0,0,0,.1h1.4s0,0,0-.1c4,0,8-.4,12-1.1,8.7-1.5,17-4.3,24.7-8.7.8-.4,1.5-.7,2.3-.5.8.2,1.6.2,2.5.3,6,.8,12,1.9,17.8,3.6.3,0,.5.2.6.6.5,1.6,1.5,2.7,3,3.5,3.2,1.7,6.5,2,10,1.4,2.3-.4,3.1-1.4,3.3-3.7,0-.5.2-.5.6-.5,3.8.4,7.4,0,10.3-2.9,1.8-1.8,4.1-2.4,6.6-2.2,1,0,2,0,3,0,0-.1-.1-.2-.2-.3ZM157,85c-1.1,11.2-5.3,21.1-12.3,29.8-.1.1-.2.3-.4.5-.3-1.5-.6-2.8-.9-4.1-1.7-8.2-3.5-16.3-5.2-24.5,0-.5-.3-.6-.8-.6-2.3,0-4.7,0-7,0-.6,0-.9-.1-.9-.7,0-.8-.4-1.1-1.2-1.2-4.7-.5-9.4-1.5-14.2-1.3-.3,0-.6,0-.8,0q-1.1.1-1.1-1c0-4.8,0-9.6,0-14.5,0-.6-.1-.8-.8-.8-7.4,0-14.7,0-22.1,0-.6,0-.8.2-.8.8,0,4.9,0,9.7,0,14.6,0,.5,0,.7-.6.6-4.2-.7-8.2,0-12.3.7-1.1.2-2.2.5-3.3.7-.7.1-1.1.5-1.2,1.2,0,.7-.4.8-1,.8-2.3,0-4.5,0-6.8,0-.5,0-.6.1-.8.6-2.1,9.2-4,18.4-5.9,27.6,0,.3-.1.6-.2,1.1-1.9-2.2-3.5-4.5-4.9-6.8-3.9-6.3-6.4-13.2-7.5-20.5-.8-5.2-.8-10.4-.1-15.7,1.2-8.6,4.2-16.5,9.1-23.6,5.9-8.7,13.7-15.2,23.2-19.6,5-2.3,10.2-3.9,15.7-4.6,5.3-.8,10.6-.8,15.9-.1,10.7,1.4,20.2,5.5,28.6,12.2,8.6,6.9,14.6,15.6,18.1,26,2.4,7.3,3.2,14.8,2.5,22.5Z"></path><path class="cls-11" d="M107,123.9c5.3,0,10.7.2,16,.3,4.3.1,8.7.4,13,.7,8.6.7,17.2,1.8,25.6,3.8,1.7.4,3.5.8,5.2,1.4.5.2,1,.4,1.3.8.4.5.4.7-.3.9-.5.2-1.1.1-1.7.1-.7,0-1.3,0-2,.1-.6.2-1,.5-1,1.3,0,1.1.4,2.2.4,3.3,0,3.4-.5,6.8-1.9,10-.2.5-.4.6-.9.4-6.5-1.9-13.2-2.9-20-3.7-4.6-.6-9.2-.9-13.8-1.1-6.7-.3-13.3-.8-20-.9-6.5,0-13.1,0-19.6.2-4.4.1-8.7.6-13.1.8-2.8.2-5.6.3-8.5.5-4.7.3-9.3.8-13.9,1.4-4.1.6-8.2,1.4-12.2,2.7-.5.1-.7,0-.9-.4-1-2.3-1.5-4.7-1.7-7.1-.2-1.9-.2-3.8.1-5.7.2-1.1-.3-1.7-1.4-1.8-.8,0-1.6,0-2.4,0-.5,0-1.2,0-1.3-.4-.1-.6.5-1,1.1-1.2,1.6-.6,3.3-.9,5.1-1.3,5.2-.9,10.5-1.6,15.7-2.3,4.3-.5,8.7-1,13.1-1.4,6.2-.6,12.5-.9,18.7-1.2,7-.4,14.1-.2,21.1-.3Z"></path><path class="cls-11" d="M64,120.3c.9-2.4,1.7-4.8,2.4-7.2,1.6-5.6,2.8-11.3,3.8-17.1.6-3.4,1.1-6.9,1.5-10.3,0-.6.3-.9,1-1.1,4.5-1.1,9-1.7,13.6-1.4,4.9.4,9.3,1.9,13.2,5,.4.3.5.6.5,1,0,10.8,0,21.7,0,32.5,0,.5,0,.9-.7.5-3.3-1.6-6.7-2.1-10.3-2.4-6.6-.6-13.3-.2-19.9.3-1.6,0-3.3.2-5.1.3Z"></path><path class="cls-11" d="M136.6,120.3c-.8,0-1.6-.1-2.3-.2-6.5-.4-13.1-.8-19.6-.5-4.1.2-8.1.7-12,2.1-.3.1-.6.2-.9.4-.3.1-.5.3-.9.3v-.8c0-9.4,0-18.8,0-28.1,0-1.4-.1-2.8,0-4.2,0-.5.2-.9.6-1.2,3.2-2.4,6.7-4,10.6-4.4,3.9-.5,7.8,0,11.7.5,1.5.2,3,.4,4.5.6.6,0,.8.3.9.9,1,7.6,2.2,15.2,4.1,22.7.9,3.8,2,7.5,3.4,11.1,0,.3.2.5.2.9Z"></path><path class="cls-11" d="M171.4,152.6c-1.8,0-3.5-.3-5.2-.7-1.4-.4-2.5-1.1-3.5-2.2-.5-.6-.7-1.3-.3-1.9,2.3-3.7,2.3-7.8,2.3-11.9,0-1.2,0-1.3,1.2-1.1,3,.5,6,.5,9,.2.7,0,.9,0,.9.8,0,3.1-.5,6.3-.4,9.4,0,1.3.4,2.5.5,3.7.3,2.3-.5,3.3-2.8,3.5-.6,0-1.2,0-1.8,0Z"></path><path class="cls-11" d="M29.7,152.5c-1.2,0-2.4,0-3.5-.3-1.1-.3-1.6-.9-1.6-2.1,0-1,.2-1.9.3-2.8.5-2.9.2-5.8,0-8.7,0-1.1-.1-2.1-.2-3.2,0-.5.2-.6.6-.5,1.4.2,2.8.2,4.2.2,1.9,0,3.9,0,5.8-.5.5-.1.7,0,.7.6,0,3.1,0,6.1.9,9.2.3,1.2,1,2.3,1.4,3.4.3.8.1,1.4-.4,2-1.4,1.6-3.3,2.3-5.3,2.5-.9.1-1.9.2-2.7.2Z"></path><path class="cls-11" d="M5.9,143.4c.1-.6.6-.9,1-1.1,2.4-1.7,5.1-2.5,8-2.9,1.6-.2,3.2-.2,4.8,0-.1-.4-.5-.5-.7-.7-1.8-1.3-3.1-2.9-3.6-5.2-.5-2.1-1.8-3.4-3.7-4.3-.6-.3-1.2-.5-1.9-.9,2.9-.8,5.7-.5,8,1.1,2.6,1.7,5.2,2.5,8.3,2.1.8-.1,1.7,0,2.6,0,.3,0,.5,0,.8.1.2,0,.4.1.4.3,0,.1-.2.2-.3.3-.5.3-1,.4-1.5.4-.9,0-1.9,0-2.8.1-1.5.2-1.9.6-1.7,2.2.2,3.3.4,6.6.3,10,0,1-.1,2.1-.2,3.1,0,.4-.2.5-.6.6-3.5.6-6.7,0-9.4-2.4-2.1-1.8-4.5-2.9-7.4-2.7,0,0-.2,0-.3,0Z"></path><path class="cls-11" d="M194.9,143c-1.3,0-2.6,0-3.9.5-1.2.4-2.3,1.1-3.3,1.9-1.8,1.5-3.7,2.6-6.1,2.8-1.4.2-2.8.1-4.2-.2-.3,0-.4-.2-.5-.5-.4-2.6-.2-5.2,0-7.8,0-1.7.4-3.4.3-5.1,0-1.2-.6-1.7-1.8-1.8-.9,0-1.8-.1-2.6-.2-.7,0-1.4-.2-2-.7.9-.4,1.7-.5,2.6-.5,1.2.1,2.4.3,3.6.4,1.4.1,2.6-.3,3.7-1.2,1.4-1.2,2.9-2.4,4.9-2.8,1.7-.4,3.4-.4,5.2,0-.2.3-.5.4-.8.5-2.5,1.1-4.4,2.8-5.1,5.6-.5,1.8-1.5,3.3-3.2,4.2-.3.2-.6.4-1.1.8,5.2-.1,10.1.4,14.1,4.1Z"></path><path class="cls-11" d="M111.5,13.4c-1.5,2.3-2.9,4.5-4.2,6.6-.2.4-.4,1-.8.9-.5,0-.5-.7-.6-1.1-.8-2.2-1.5-4.5-2.3-6.7,0-.1-.1-.3-.2-.6-.6,2.3-1.2,4.5-1.7,6.7-.1.4.1.7.5.8.3,0,.5,0,.8.3-.4.4-.8.2-1.2.1-1.5-.3-3-.4-4.5,0-1.3.3-2.4-.1-3.3-1-.9-.9-1.7-1.8-2.6-2.7-.4-.5-1.4-.6-2-.4-.3.1-.2.3-.2.5.2,1.2.4,2.3.6,3.5.1.6.6.7,1.1.6.2,0,.5-.1.6.1,0,.3-.3.2-.5.3-1.5.2-3,.4-4.5.6,0-.2,0-.3.1-.3,1-.1,1-.8.9-1.6-.3-2-.5-4.1-.8-6.1-.2-1.1-.4-2.1-.5-3.2-.1-.8-.5-1-1.2-.9-.2,0-.5.2-.5-.1,0-.3.3-.2.5-.3,1.9-.2,3.7-.7,5.5-.7.4,0,.8,0,1.1,0,1.9.4,2.8,2.5,2,4.4-.2.6-.6,1.1-1,1.6-.3.3-.3.5,0,.7,1.3,1.2,2.6,2.4,3.9,3.5.9.8,1.9.8,3,.7.6,0,.7-.6.8-1,.7-2.4,1.3-4.7,2-7.1.3-1.1.6-2.1.9-3.2,0-.3.1-.6.4-.7.3,0,.4.4.5.6,1,2.8,1.9,5.7,2.9,8.5.1.3.1.6.4.9,1.6-2.5,3.1-4.9,4.6-7.3.3-.4.5-.8.8-1.2.1-.2.2-.4.5-.3.3,0,.3.3.3.6,0,1.3.1,2.7.1,4,0,2.3,0,4.5.2,6.8,0,.9.3,1.2,1.3,1.4.2,0,.5,0,.4.3,0,.2-.3.2-.5.2-1-.1-2-.3-3.1-.5-.4,0-.8-.1-.3-.7,0,0,0-.2,0-.4,0-2.3,0-4.7-.2-7.3Z"></path><path class="cls-11" d="M127.9,120.6c3.3,0,6.5.4,9.7.6.1-.3,0-.5-.1-.7-2.9-7.8-4.7-15.8-6.2-24-.5-3.1-1-6.1-1.5-9.2,0-.4,0-.6.4-.6,1.8-.1,1.8-.1,2.1,1.8.9,7.1,2.1,14.1,3.8,21.1.9,3.9,2.1,7.7,3.4,11.5.3.9.3.9-.6.8-4-.5-7.9-.9-11.9-1.2.2-.4.5-.2.8-.1Z"></path><path class="cls-11" d="M73.7,120.7c-4.3.3-8.5.8-12.9,1.3.5-1.5,1.1-3,1.5-4.4,2.4-7.6,3.9-15.4,5.2-23.3.4-2.3.7-4.6,1.1-6.9,0-.4.2-.6.7-.6,1.6.1,1.6.1,1.4,1.7-1.2,8.2-2.6,16.5-5,24.5-.7,2.5-1.6,5-2.5,7.4,0,.3-.3.5-.2.8,3.2-.2,6.4-.6,9.6-.6.4,0,.8-.2,1.1.1Z"></path><path class="cls-11" d="M36.3,99.6c2-.2,3.9-.3,5.9-.5.5,0,.8-.3.8-.9,0-.2-.1-.5.2-.9.5,1.4.6,2.8,1,4.1-.2,0-.3,0-.3,0-.3-1-1.1-1-1.9-1-2.7.2-5.5.4-8.2.6-.7,0-1.5,0-2.2.1-.3,0-.5,0-.7-.2-.1-.3.2-.5.3-.6,2.3-1.8,4.6-3.6,6.9-5.4.3-.2.6-.5,1.1-.8-1.1-.3-2.1-.5-3.1-.7-2.2-.5-4.4-1-6.7-1.5-.3,0-.7-.1-.7-.4,0-.3.4-.4.6-.5,3.1-1.2,6.2-2.3,9.3-3.5.2,0,.4-.2.6-.3.7-.2,1-.7.9-1.4,0-.2,0-.5,0-.8.3,0,.4.2.4.4.2,1.1.4,2.1.6,3.2,0,.3.2.8-.5.5,0,0-.2,0-.4,0-2.2.8-4.5,1.6-6.7,2.6,2,.5,4,.9,6,1.4.8.2,1.5.4,2.3.6.6.1.6.4.2.8-.9.8-1.9,1.5-2.8,2.3-1.2.9-2.3,1.8-3.5,2.7,0,.4.3.2.5.2Z"></path><path class="cls-11" d="M163.6,44.8c.8,1.7,1.5,3.3,2.2,4.9-.2,0-.3,0-.3,0-.8-1-.8-1-2-.5-.8.4-1.6.7-2.5,1.1-.4.2-.5.3-.3.8.7,1.6,1.4,3.1,2.1,4.7.2.4.4.5.7.3.9-.4,1.9-.9,2.8-1.3.9-.4,1-.6.7-1.5,0-.2-.2-.4.1-.6.7,1.6,1.4,3.2,2.1,4.8,0,0-.1.2-.2.3-.7-1.7-1.7-1-2.6-.5-2.3,1-4.6,2.1-6.9,3.1-.3.1-.6.3-.9.4-.7.3-.9.8-.6,1.5,0,.2.1.4,0,.6-1-1.5-1.6-3.1-2.4-4.8.2,0,.3,0,.3,0,.8.9.8,1,2,.5,1.2-.5,2.4-1,3.6-1.6.3-.1.4-.3.2-.6-.8-1.6-1.5-3.3-2.2-4.9-.1-.3-.2-.4-.6-.2-1.3.6-2.6,1.2-3.8,1.8-1,.5-1,.6-.7,1.7,0,.1,0,.3,0,.4,0,0,0,0-.2.2-.9-1.6-1.5-3.3-2.3-4.9.2,0,.3,0,.3,0,.8.9.8.9,2,.5,2.8-1.1,5.5-2.4,8.3-3.7,1-.4,1-.6.7-1.6q0-.2.1-.7Z"></path><path class="cls-11" d="M71,121.9c-4.1.5-8.1,1.1-12.2,1.8-.9.2-.9.1-.6-.7,2.8-7.6,4.5-15.5,5.8-23.4.6-3.5,1.1-7.1,1.7-10.6,0-.4.2-.5.6-.5,1.3.1,1.3.1,1.1,1.5-.9,6.9-2.1,13.7-3.8,20.4-1,4-2.2,8-3.7,11.8,0,.2-.1.4-.2.7,3.7-.4,7.2-.9,10.8-1.2.2,0,.4-.2.5.2Z"></path><path class="cls-11" d="M131.9,121.9c2.6.2,5.2.5,7.7.9,1.4.2,1.4.2,1-1.1-3-8.4-4.9-17-6.3-25.8-.4-2.2-.7-4.4-1-6.6,0-.4,0-.7.5-.6.2,0,.4,0,.5,0,.5-.2.7,0,.8.6.7,3.6,1.1,7.3,1.8,10.9,1.4,7.8,3.1,15.6,5.8,23,0,.2.2.4.1.7-3.9-.6-7.8-1.1-11.6-1.7.2-.4.5-.2.8-.1Z"></path><path class="cls-11" d="M173.2,85c0,4-2.5,6.8-6.4,6.7-4-.1-6.8-2.9-6.8-6.8,0-3.9,2.7-6.7,6.6-6.7,3.6,0,6.7,2.7,6.5,6.8Z"></path><path class="cls-11" d="M158.9,68.6c0-3.5,2.9-6.4,6.6-6.4,4,0,6.4,2.8,6.6,6.8.3,4.2-2.7,6.5-6.5,6.6-3.8.1-6.7-2.9-6.8-7Z"></path><path class="cls-11" d="M41.2,78.3c0,3.9-2.8,6.7-6.6,6.6-3.9,0-6.6-2.8-6.5-6.8,0-4.2,2.4-6.7,6.3-6.7,4,0,6.8,2.8,6.8,6.8Z"></path><path class="cls-11" d="M46.7,46.9c-2.3-1.1-4.6-2.3-6.8-3.4-.6-.3-1.1-.1-1.4.4-.1.2-.2.4-.4.4-.1-.1,0-.3,0-.4.6-1,1.1-2.1,1.7-3.1,0-.1.2-.4.4-.3.3,0,0,.3,0,.4-.4.8.1,1.1.7,1.4,2.9,1.6,5.8,3.2,8.8,4.9.3.2.9.3.8.8,0,.4-.6.4-.9.5-3.6,1.1-7.2,2.2-10.9,3.1-.1,0-.3,0-.6.2.7.4,1.3.7,1.9,1,1.4.7,2.8,1.4,4.2,2.1,1.2.6,1.4.6,2.3-.4,0,0,.1,0,.4,0-.7,1.3-1.4,2.7-2.2,4.1-.2-.3-.2-.4-.1-.6.5-.8,0-1.2-.6-1.5-2.9-1.6-5.9-3.3-8.8-4.9-.1,0-.2-.1-.3-.2-.3-.1-.5-.3-.5-.6,0-.3.4-.2.6-.3,2.8-.8,5.6-1.6,8.3-2.3,1.2-.3,2.4-.7,3.6-1,0,0,0-.1,0-.2Z"></path><path class="cls-11" d="M29.1,68.2c-.1-.5.1-.9.2-1.3.3-1,.5-2.1.8-3.1,0-.2,0-.6.3-.5.4,0,.1.4.1.5,0,.4,0,.8.5.9,2.7.7,5.4,1.8,8.2,1.9,2.6.1,3.5-2.5,2.9-4.2-.3-.8-1-1.3-1.7-1.6-1.6-.7-3.3-1-4.9-1.4-.8-.2-1.7-.4-2.5-.6-.7-.2-1.2,0-1.4.7,0,.2-.1.3-.3.4-.2,0-.2-.3-.1-.4.3-1.2.6-2.3.9-3.5,0-.2,0-.4.3-.3.2,0,.2.3.1.4-.2.7.2.9.7,1.1,1.8.5,3.6,1,5.4,1.5.7.2,1.3.4,2,.7,2,1,3,2.8,2.6,5.1-.4,2-1.1,3.6-3.2,4.3-1.2.4-2.3.2-3.5-.1-1.9-.5-3.8-1-5.7-1.5-.7-.2-1.1,0-1.3.7,0,.2,0,.5-.4.5Z"></path><path class="cls-11" d="M58.8,24.3c0-2.7,1.4-4.4,3.3-5.7,1.2-.8,2.5-1.4,3.7-2,.2-.1.4-.1.6.1.4.7.8,1.4,1.3,2.1.1.2.2.4,0,.5-.2.2-.3-.1-.4-.3-.7-.8-1.5-1-2.5-.8-1,.2-1.9.7-2.7,1.4-1.4,1.1-1.8,2.6-1.3,4.2.7,2.4,2.2,4.3,4.7,4.9,2,.5,3.7-.1,5.1-1.7.6-.6.8-1.4.5-2.3,0-.2-.3-.4,0-.5.2,0,.3.2.4.3.2.3.3.7.5,1,.5,1.2.5,1.3-.4,2.1-1.5,1.3-3.1,2.4-5,2.8-3.5.8-6.3-1.4-7.5-4.4-.3-.7-.4-1.4-.3-1.9Z"></path><path class="cls-11" d="M153.4,34.6c2.5,0,4.1,1.3,5.5,3.1.8,1,1.5,2.2,2.1,3.4.1.3.1.5-.1.6-.7.4-1.3.9-2,1.4-.2.1-.4.3-.5.1-.2-.3,0-.3.2-.4.8-.9,1-1.9.5-3-.2-.4-.4-.9-.6-1.3-1.4-2.2-3.5-2.8-5.9-1.6-2.1,1.1-3.6,2.6-3.8,5.1-.2,2.1.8,3.7,2.3,4.8.7.5,1.5.5,2.2.1.2,0,.4-.1.4.1,0,.2-.1.2-.3.3-.6.3-1.2.6-1.8,1-.4.2-.7,0-1-.2-2-1.8-3.5-3.9-3.8-6.6-.3-2.3,1.3-5,3.6-6.1,1.1-.5,2.1-.8,2.9-.8Z"></path><path class="cls-11" d="M77.2,25.1c-1.3.5-2.7,1-4,1.5-.1-.3,0-.4,0-.4,1.1-.4,1.2-1.2,1.2-2.2,0-3.6.1-7.2.2-10.8,0-.2,0-.4,0-.6,0-.4.3-.5.6-.2.5.5,1,1,1.4,1.5,2.2,2.3,4.3,4.7,6.5,7,.6.6,1.3,1,2.1.6.1,0,.2-.1.3,0,.1.2,0,.3-.2.3-1.2.5-2.4.9-3.6,1.3-.1,0-.4,0-.2-.2.3-.4,0-.7-.3-.9-.6-.7-1.2-1.3-1.8-2-.2-.3-.4-.4-.8-.2-.9.4-1.7.7-2.6,1-.2,0-.5.1-.5.5,0,.9,0,1.8,0,2.7,0,.6.3,1,1,.7,0,0,.2,0,.4,0,0,0,0,.2,0,.2Z"></path><path class="cls-11" d="M120.3,11.1c.4-.3.7,0,1,0,2.1.8,4.1,1.6,6.3,2.2.2,0,.4,0,.3.4-.3.6-.5,1.2-.8,1.8,0,.1-.2.3-.3.2-.2,0,0-.2,0-.3.2-.9-.2-1.3-1-1.5-.7-.2-1.4-.9-1.9-.6-.4.2-.5,1.2-.7,1.8-.2.6-.4,1.2-.6,1.8-.1.3,0,.5.2.6.8.3,1.6.5,2.4.8.4.1.7-.3,1,0-.4,1.2-.9,2.2-1.3,2.5-.1-.1,0-.3,0-.4.2-.6,0-1-.6-1.3q-2.1-1-2.8,1.1c-.2.7-.5,1.3-.7,2-.2.7,0,1.2.7,1.4.4.2.8.3,1.3.5.8.3,1.5.2,1.9-.6,0-.1.2-.3.3-.2.2.1.1.3,0,.5,0,0,0,0,0,0-.7,1.9-.8,2-2.7,1.3-1.7-.6-3.3-1.3-5-1.8-.2,0-.5-.1-.4-.3,0-.3.3-.2.5,0,.7.3.9-.3,1.1-.7.6-1.5,1.1-3,1.7-4.6.5-1.4,1-2.8,1.5-4.3.4-1.1.3-1.2-.7-1.7-.1,0-.2-.1-.3-.3Z"></path><path class="cls-11" d="M57.3,39.1c-1.2,1.4-2.4,2.7-3.6,4.1-.1-.2-.2-.3-.2-.3.6-1.1.6-1.2-.4-2-2.3-2-4.6-4-6.9-6.1-.3-.3-.5-.2-.7,0-.5.6-.9,1.1-1.4,1.7-.5.6-.7,1.2-.2,1.8,0,.1,0,.2,0,.4-.7-.5-1.1-1.1-1.5-1.8-.1-.2,0-.3.1-.4,1.4-1.1,2.4-2.5,3.5-3.8,1-1.2,2.2-2.3,3-3.7.1-.2.3-.3.5,0,.5.4,1,.9,1.4,1.3,0,0,.2.2.1.3-.1.2-.3,0-.4,0-.5-.3-1-.2-1.4.1-.7.5-1.2,1.3-1.8,1.9-.3.3,0,.4.2.5,2,1.7,4,3.5,6,5.2.4.3.8.6,1.2.9.9.7,1,.7,1.8,0,.1-.1.2-.3.7-.2Z"></path><path class="cls-11" d="M140.9,32c-.2.3-.4.6-.6,1-.5.9-.4,1.8.3,2.6.7.8,1.6,1.1,2.4.8.9-.3,1.5-1.5,1.3-2.7-.1-.9-.3-1.7-.4-2.6-.1-1.3,0-2.6,1-3.6,1-1.1,2.5-1.3,3.8-.6,1,.6,1.8,1.4,2.5,2.4.1.2.2.4,0,.6-.5.5-.9.9-1.4,1.4-.1.1-.3.3-.4.2-.2-.2,0-.3.1-.5.7-1.2.3-2.4-.8-3-1.1-.6-2.3,0-2.5,1.2-.1.9,0,1.8.2,2.7.1.7.1,1.5.1,2.2,0,1.6-.9,2.8-2.3,3.4-1.4.7-2.8.2-3.9-.7-.7-.6-1.3-1.2-1.8-2-.2-.4-.2-.7.2-1,.5-.5,1-1,1.5-1.5.1-.1.3-.3.6-.1Z"></path><path class="cls-11" d="M170.1,100.4c-.4-.2-.1-.4,0-.7,0-.5,0-.8-.6-1-3-.8-6-1.7-9-2.3-.7-.1-1.1.2-1.3.8-.2.6-.4,1.2-.5,1.8-.1.6,0,1.1.6,1.5.2.1.5.2.7.6-.9,0-1.6-.4-2.3-.8-.5-.3-.2-.8,0-1.2.5-2.1,1.2-4.1,1.7-6.3,0-.2.1-.4.3-.5,0,0,.1,0,.1,0,0,1.3,0,1.3,1.3,1.6,2.9.8,5.8,1.5,8.7,2.3.8.2,1.4,0,1.5-.8,0-.2,0-.3.3-.3.2,0,.2.2.2.3-.4,1.5-.8,3-1.3,4.6,0,0-.1,0-.2.1Z"></path><path class="cls-11" d="M131.4,15.3c.2-.1.4,0,.5,0,1.2.6,2.4,1.3,3.6,1.9.2,0,.4.2.4.4-.1.2-.3,0-.5,0-.6-.4-1-.2-1.3.4-1.4,2.6-2.9,5.2-4.2,7.9-.4.9-.3,1.1.5,1.7.4.3.8.5,1.2.7,1,.5,1.3.5,2.2-.3.1-.1.2-.4.4-.2.1.1,0,.3,0,.4-.3.5-.6,1-1,1.4-.2.3-.5.4-.9.2-2.1-1.1-4-2.4-6.2-3.4-.2,0-.4-.2-.3-.4.1-.3.3,0,.5,0,.5.2.8,0,1.1-.3,1.2-1.8,2.1-3.8,3.2-5.7.5-.9,1-1.9,1.5-2.8.4-.8.6-1.1-.3-1.7-.1,0-.3-.2-.2-.4Z"></path><path class="cls-11" d="M162.4,106.7c0,2.1-1.6,4.2-3.5,4.8-.5.2-.8,0-.9-.5-.5-2.1.8-4.7,2.9-5.5,1-.4,1.3-.2,1.4.8,0,.1,0,.3,0,.4Z"></path><path class="cls-11" d="M44.8,121.8c-1.9-.2-3.4-1-4.3-2.7-.2-.5-.2-.7.4-1,2.1-.9,5.3.4,6.1,2.6.2.4,0,.6-.3.7-.6.3-1.2.4-1.9.4Z"></path><path class="cls-11" d="M156,121.8c-.5,0-1.1,0-1.6-.3-.9-.3-.9-.5-.5-1.2,1.1-2,4-3.1,5.9-2.2.5.2.7.5.4,1-.9,1.8-2.4,2.6-4.3,2.7Z"></path><path class="cls-11" d="M42.8,110c0,1.6-.4,1.9-1.9,1.1-1.8-1-2.9-3.2-2.5-5.1.1-.6.4-.8,1-.6,1.9.5,3.4,2.6,3.4,4.6Z"></path><path class="cls-11" d="M153.3,111.9c0-1.4.4-2.6,1.4-3.5.4-.3.6-.4,1,0,1.6,1.7,1.4,5.2-.4,6.7-.3.3-.5.2-.7,0-.8-.9-1.2-1.9-1.3-3.1Z"></path><path class="cls-11" d="M153.5,116.8c0,1.3-.2,2.3-.7,3.1-.2.4-.4.5-.8.2-2.1-1.3-2.7-4.7-1.2-6.6.3-.4.5-.4.9-.1,1.3.9,1.8,2.2,1.9,3.4Z"></path><path class="cls-11" d="M47.2,117c0-1.4.6-2.7,1.9-3.6.4-.3.7-.3,1,.2,1.4,2,.8,5.3-1.3,6.5-.3.2-.5.2-.8-.1-.6-.9-.8-1.8-.8-2.9Z"></path><path class="cls-11" d="M39.2,112.2c2.1,0,4.2,1.7,4.7,3.6.1.4,0,.6-.4.8-2.4.7-5.4-1.1-5.8-3.6,0-.3,0-.5.4-.6.4-.1.7-.2,1.1-.2Z"></path><path class="cls-11" d="M161.5,112.2c1.9.1,1.7.4,1.1,1.8-.8,1.9-3.1,3-5.1,2.6-.7-.1-.8-.4-.6-1,.6-1.9,2.7-3.4,4.7-3.4Z"></path><path class="cls-11" d="M43.9,111.6c0-1.5.4-2.4,1.1-3.2.3-.3.5-.4.9,0,1.9,1.6,2,5,.2,6.7-.3.3-.5.3-.8,0-1.1-1-1.5-2.4-1.5-3.4Z"></path><path class="cls-14" d="M164.8,133c.8-.2,1.5-.2,2.3-.2.8,0,1.5-.2,2.2-.6.6,1.8.5,2-1.3,1.9-.8,0-1.6,0-2.3-.3-.4-.1-.9-.3-1-.9Z"></path><path class="cls-7" d="M31.1,132.2c1.4.8,2.9.5,4.2.8.2,0,.4,0,.5.2,0,.2-.1.4-.3.5-.3.3-.7.4-1.2.4-.9,0-1.8,0-2.7.1-.4,0-.6,0-.5-.5,0-.4,0-.9,0-1.4Z"></path><path class="cls-14" d="M25,133.8c.6-.2,1.1-.4,1.7-.4.9,0,1.8,0,2.7-.2.2,0,.4-.1.4.2,0,.3.1.7-.3.7-1.4,0-2.9.2-4.3-.2,0,0-.2-.1-.3-.2Z"></path><path class="cls-14" d="M175.7,133.8c-.4.3-.8.4-1.1.4-1.1,0-2.2,0-3.2,0-.5,0-.4-.4-.4-.6,0-.2,0-.5.3-.4,1.3.3,2.6.1,3.8.4.2,0,.3,0,.6.2Z"></path><path class="cls-53" d="M124.1,120.6c-.8.1-1.6-.2-2.4-.1,0,0,0,0,0,0,0,0,0,0,0,0,.9,0,1.8-.1,2.7.1,0,.1-.2,0-.3.1Z"></path><path class="cls-12" d="M78.7,120.4c-.7,0-1.4.3-2.4,0,.9-.2,1.6-.1,2.4-.1,0,0,0,0,0,0,0,0,0,0,0,0Z"></path><path class="cls-1" d="M73.7,120.7c-.3-.3-.7,0-1.1-.1.6-.2,1.2-.1,1.9-.1.1.1.3,0,.5.1-.4.2-.8.1-1.2.1Z"></path><path class="cls-5" d="M127.9,120.6c-.3,0-.5,0-.8.1-.4,0-.7,0-1.1-.1,0,0,0,0,0,0,0,0,0,0,0,0,.6,0,1.2,0,1.9.1Z"></path><path class="cls-3" d="M128.6,121.6c.6,0,1.1,0,1.7.1-.1.2-.3,0-.5.1-.5,0-.9-.1-1.4-.2,0-.1,0-.2.2-.1Z"></path><path class="cls-41" d="M128.6,121.6c0,0-.1,0-.2.1-.5,0-1,0-1.5-.1,0,0,0,0,0,0,0,0,0,0,0,0,.6,0,1.2,0,1.7.1Z"></path><path class="cls-18" d="M123.5,121.2c.5,0,1,0,1.5.2,0,0,0,0,0,0,0,0,0,0,0,0-.5,0-1,0-1.5-.1,0,0,0,0,0,0,0,0,0,0,0,0Z"></path><path class="cls-2" d="M75.8,121.3c.4-.3.9-.1,1.4-.2,0,0,0,0,0,0,0,0,0,0,0,0-.5,0-.9,0-1.4.1,0,0,0,0,0,0,0,0,0,0,0,0Z"></path><path class="cls-8" d="M73.1,121.7c-.2.2-.4.1-.6.1-.1-.1-.3,0-.5-.1.3-.2.6-.1.9-.1,0,0,.1,0,.2.1Z"></path><path class="cls-43" d="M71,121.9c-.1-.2-.3,0-.5-.2.3-.2.5-.1.8-.1.1.1.3,0,.5.1-.2.1-.5.1-.8.1Z"></path><path class="cls-44" d="M131.9,121.9c-.3,0-.6,0-.8.1-.2,0-.4,0-.7-.1.1-.2.3,0,.5-.1.3,0,.6,0,.9.1Z"></path><path class="cls-37" d="M74.9,120.6c-.2,0-.3,0-.5-.1h1.3c-.3.2-.6.1-.9.1Z"></path><path class="cls-49" d="M126.8,121.5s0,0,0,.1c-.3,0-.5,0-.8-.1,0,0,0,0,0,0,0,0,0,0,0,0,.3,0,.5,0,.8.1Z"></path><path class="cls-75" d="M74.6,121.5c-.2.2-.5.1-.8.1,0,0,0,0,0,0,0,0,0,0,0,0,.2-.1.5-.2.8-.1,0,0,0,0,0,0,0,0,0,0,0,0Z"></path><path class="cls-11" d="M130.9,121.8c-.1.2-.3.1-.5.1-.2,0-.5,0-.7,0,.1-.2.3,0,.5-.1.2,0,.5,0,.7,0Z"></path><path class="cls-38" d="M71.8,121.8c-.2,0-.3,0-.5-.1.2,0,.5,0,.7,0,.2,0,.3,0,.5.1-.2,0-.5,0-.7,0Z"></path><path class="cls-50" d="M74.6,121.5s0,0,0-.1c.4,0,.8,0,1.2,0,0,0,0,0,0,.1-.4,0-.8,0-1.2,0Z"></path><path class="cls-37" d="M126.1,120.5s0,0,0,.1c-.4,0-.8,0-1.2,0,0,0,0,0,0,0,0,0,0,0,0,0,.4,0,.8,0,1.2,0Z"></path><path class="cls-71" d="M126.1,121.4s0,0,0,.1c-.3,0-.7,0-1,0,0,0,0,0,0-.1.3,0,.7,0,1,0Z"></path><path class="cls-13" d="M78.7,120.4s0,0,0-.1c.2,0,.5,0,.7,0,0,0,0,0,0,.1h-.7Z"></path><path class="cls-76" d="M36.3,99.6c-.1,0-.3.1-.4.1-.1,0-.3,0-.3-.1,0,0,.1-.1.2-.2.1.2.3.1.5.2Z"></path><path class="cls-26" d="M73.9,121.5s0,0,0,.1c-.2,0-.5,0-.7,0,0,0-.1,0-.2-.1.3,0,.6,0,.9,0Z"></path><path class="cls-56" d="M77.2,121.3s0,0,0-.1c.2,0,.4,0,.6,0-.2.1-.4,0-.6,0Z"></path><path class="cls-47" d="M124.9,120.4s0,0,0,.1c-.2,0-.5,0-.7,0,0,0,.2,0,.3-.1.1,0,.3,0,.4,0Z"></path><path class="cls-65" d="M123.5,121.2s0,0,0,.1c-.2,0-.4,0-.6,0,.2-.1.4,0,.6,0Z"></path><path class="cls-29" d="M121.7,120.3s0,0,0,.1c-.2,0-.4,0-.6,0,.2-.1.4,0,.6,0Z"></path><path class="cls-67" d="M104.4,37.6c1.1,1,2.2,2.1,2.9,3.3,1.3,2.2,1.2,4.6.4,6.9-.8,2.8-2.6,5-4.7,6.9-.5.4-.9.9-1.4,1.3-2.1,1.9-3.3,4.1-2.3,7.1-2.8-1.2-5.1-2.9-6.4-5.6-1.2-2.7-.6-5.7,1.6-8,1.1-1.2,2.4-2.1,3.7-3,1.3-.9,2.6-1.8,3.7-2.8,1.7-1.6,2.5-3.5,2.2-5.8,0-.2-.1-.3.2-.3Z"></path><path class="cls-67" d="M100.1,31.5s0,0,0,0c-.6,1.2,0,2.1.7,3.1.4.6.8,1.3,1.2,1.8,1.2,1.4.7,3.5-.2,4.7-1.2,1.6-2.8,2.6-4.4,3.8,0,0-.1,0-.3,0,.3-.6.5-1.2.8-1.7.8-1.6.9-3.1,0-4.7-.5-.8-1-1.6-1.1-2.5-.2-2.1,1-3.6,3.3-4.5Z"></path><path class="cls-70" d="M104.4,37.6c-.2,0-.1.2-.2.3-.1-.1-.2-.3,0-.5,0-.1.2,0,.3.1Z"></path><path class="cls-54" d="M80,130.3c.5,1,.5,1.9.8,2.8.2.5.2,1.1.3,1.6.1.5.2,1,1,.9-.6.3-1.2.2-1.7.2-.2,0-.1-.1-.1-.3,0-1-.4-1.9-.5-2.9-.4.5-.5,1.1-.8,1.6-.3.5-.4,1.2-.8,1.7-.8-.9-1.2-2-2-3,0,.9,0,1.6-.2,2.4,0,.5.4.4.7.7-.7,0-1.2.1-1.8.2.4-.3.5-.5.5-.9,0-1.3.2-2.5.3-3.8,0-.3,0-.6.2-.9.6.5.8,1.3,1.2,1.9.4.6.7,1.2,1.2,2,.6-1.5,1.1-2.8,1.7-4.3Z"></path><path class="cls-54" d="M114.2,135.7c-.5-1.3-.9-2.4-1.4-3.8-.7,1.2-1,2.5-1.8,3.6-.4-.8-.5-1.6-.8-2.4-.2-.7-.4-1.5-.6-2.2,0-.4-.2-.7-.7-.9.7-.2,1.3,0,2.1,0-.4.2-.5.3-.4.7.3,1,.5,1.9.7,3.1.6-1.3,1.1-2.5,1.7-3.9.5,1.4,1,2.7,1.5,3.9,1.1-2.5,1.2-3.1.7-3.6.6,0,1.1,0,1.7.2-.6,0-.7.4-.8.8-.5,1.3-1,2.5-1.5,3.8,0,.2-.1.5-.5.7Z"></path><path class="cls-54" d="M130.3,131.5c.5,0,1.1,0,1.7.2-.6,0-.7.4-.8.8-.1,1.1-.2,2.2-.3,3.2,0,.7,0,.7.8,1.2-.9-.1-1.7-.2-2.4-.3.8-.3.6-1,.6-1.4.2-1.1.1-1.1-1-1.2-1.4-.2-1.4-.2-1.6,1.3,0,.5-.2,1,.6,1.1-.8,0-1.5,0-2.4-.2.6-.1.7-.4.8-.8.1-1.1.2-2.2.3-3.3,0-.5,0-.9-.5-1.1.7,0,1.4.1,2.2.2-.5.3-.9,1.5-.7,1.9,0,.3.3.2.5.3.4,0,.8,0,1.2.1.3,0,.7.3.9-.1.3-.7.2-1.5-.3-1.8,0-.4.3-.2.5-.1Z"></path><path class="cls-10" d="M154.3,140.1c.4,0,.6-.3.7-.7.2-1.1.5-2.3.7-3.4,0-.4,0-.8-.5-1,1.3.2,2.7.2,3.9.8,1.1.5,1.6,1.6,1.3,2.8-.2,1.1-1.3,2-2.4,2.1-1.3.1-2.4-.4-3.7-.6Z"></path><path class="cls-54" d="M43.5,135.3c1.6,0,2.7,1,2.7,2.7,0,1.6-1.3,2.9-3,2.9-1.5,0-2.7-1.2-2.7-2.8,0-1.6,1.3-2.8,3.1-2.8Z"></path><path class="cls-54" d="M147,135.7c0,1.7-1.2,2.9-2.9,2.9-1.7,0-2.9-1.1-2.9-2.8,0-1.5,1.2-2.8,2.8-2.8,1.8,0,3,1.1,3,2.7Z"></path><path class="cls-54" d="M71,136.8c-1.6,0-2.7-1.2-2.7-2.8,0-1.7,1.3-2.8,3.1-2.8,1.6,0,2.7,1.2,2.7,2.7,0,1.6-1.3,2.9-3,2.9Z"></path><path class="cls-54" d="M153.7,136.7c0,1.6-1.3,2.9-2.8,2.9-1.7,0-2.9-1.2-3-2.9,0-1.4,1.2-2.9,3-2.7,1.7.1,2.8,1.1,2.8,2.7Z"></path><path class="cls-10" d="M59.5,138c-.2,0-.4.1-.7.2-.5,0-.9.1-1.5.1.5-.3.5-.7.4-1.2-.2-1-.3-2-.4-3.1,0-.5,0-1-.9-.9,1.1-.3,2.1-.6,3.1-.4.9.1,1.3,1.2.7,2.2-.3.5-.3.7.1,1.1.7.6,1.3,1.3,2.3,1.5-1.1.4-1.7.3-2.4-.4-.3-.3-.6-.6-.9-1-.2-.2-.3-.2-.5-.1-.3,0-.3.3-.2.5.2.5-.2,1.4.8,1.6Z"></path><path class="cls-10" d="M138.3,135c.7,0,1.4.2,2.3.3-1,.3-.9,1-.9,1.5,0,.8-.4,1-1.1,1-1.1,0-2.1-.2-3-.9-.9-.7-1-1.7-.8-2.7.3-1.1,1-1.8,2.1-2,1-.2,1.9,0,2.8.3.3,0,.3.3.3.5,0,.3-.1.6-.2,1.1-.4-1.3-1.3-1.6-2.4-1.5-.4,0-.8.1-1.1.5-.6.8-.7,1.8-.3,2.8.3.9,1,1.2,1.9,1.4.4,0,.6,0,.6-.4,0-.3,0-.6.1-.9,0-.4,0-.8-.6-.8,0,0,0-.1.1-.2Z"></path><path class="cls-22" d="M55.5,135.3c0,.4,0,.7.1,1.1-.3.1-.3-.1-.3-.2-.3-.4-.7-.1-1.1,0-.5,0-.1.4-.1.6,0,0,0,.2,0,.3.1.4-.1,1,.5,1.1.7.1,1.3,0,1.4-1,.3,1.2.3,1.3-.8,1.5-.8.1-1.6.2-2.4.3.5-.2.5-.6.4-1-.2-1.2-.3-2.3-.5-3.5,0-.5-.4-.6-.8-.7,1.1-.2,2.1-.4,3.2-.6.2,0,.2.2.2.3,0,.2,0,.5,0,1-.4-.9-1.2-.7-1.5-.5-.4.3-.1,1.1.1,1.5.4.5,1,0,1.5-.1Z"></path><path class="cls-10" d="M67.5,136.3c0,.3,0,.6-.4.7-1.1.4-2.2.5-3.3,0-1.2-.7-1.7-1.8-1.3-3.1.3-1.1,1.4-2,2.8-2.1.2,0,.5,0,.7,0,1.2,0,1.3.2,1,1.6-.2-.7-.6-1-1.1-1.1-.6,0-1.2,0-1.7.4-.9.7-.9,2.5,0,3.5.9.9,2.2,1,3,0,.2-.1.2,0,.3.2Z"></path><path class="cls-22" d="M82.4,130.5c1,0,2-.1,3-.3.3,0,.3,0,.3.3,0,.2,0,.5,0,.9-.4-.7-1.1-.7-1.5-.4-.4.3-.2,1.1,0,1.4.3.5,1,.2,1.5,0,.1.4,0,.8,0,1.2-.2,0-.2-.3-.3-.4-.3-.3-.7-.2-1,0-.3,0-.1.4-.2.6,0,.1,0,.3,0,.4.1.4-.2,1,.4,1.1.6.1,1.2.1,1.4-.8.2,1.2,0,1.4-.9,1.4-.8,0-1.6,0-2.6,0,.6-.2.7-.5.6-.9,0-1.1-.1-2.3-.2-3.4,0-.5-.2-.8-.7-.9Z"></path><path class="cls-10" d="M92.7,131.3c-.2-.9-.8-.7-1.3-.7-.2,0-.3,0-.2.3,0,0,0,0,0,.2,0,1.5.2,1.6,1.7,1.1,0,.4,0,.8-.1,1.1-.3,0-.3-.3-.5-.4-.7-.2-1,0-1,.8,0,0,0,0,0,0,0,.4-.2,1.1.5,1.2.6.1,1.1,0,1.4-.8.2,1.2.2,1.2-.9,1.2-.8,0-1.6,0-2.5,0,.6-.2.6-.6.6-1,0-1.2-.1-2.3-.1-3.5,0-.5-.3-.6-.7-.6.2-.4.6-.2.9-.2.6,0,1.2,0,1.7,0,1,0,1,0,.7,1.2Z"></path><path class="cls-10" d="M93.5,130.2c.7-.3,1.4-.2,2.3-.2-.5.3-.4.6-.3,1,.4.9.8,1.9,1.2,2.9.4-1.2.8-2.2,1.2-3.3.1-.3,0-.5-.5-.5.7-.3,1.3-.2,1.9-.1-.5.1-.6.5-.8.9-.5,1.3-1.1,2.6-1.6,4,0,.2,0,.6-.4.6-.2,0-.3-.3-.4-.5-.5-1.3-1.1-2.5-1.7-3.8-.2-.4-.3-.9-1-.9Z"></path><path class="cls-10" d="M45.9,134.8c.7-.1,1.4-.2,2.3-.4-.5.4-.3.7-.1,1.1.5.8,1,1.7,1.6,2.7.3-1.2.5-2.3.8-3.4,0-.4-.3-.3-.4-.5.6-.2,1.1-.3,1.7-.3-.5.3-.6.7-.7,1.2-.3,1.3-.7,2.6-1,3.9,0,.2,0,.6-.3.6-.3,0-.3-.3-.5-.5-.7-1.2-1.4-2.3-2.1-3.5-.2-.4-.5-.8-1.1-.6v-.2Z"></path><path class="cls-10" d="M122.9,136h-1.4c0,0,0-.1,0-.2.6,0,.7-.4.7-.8,0-1.1.2-2.3.2-3.4,0-.3-.1-.5-.4-.4-.5,0-1.1-.2-1.4.5-.1-1,0-1.1.9-1.1,1,.1,2,.2,2.9.3,1,0,1,0,.7,1.1-.2,0-.2-.1-.2-.2-.3-.5-.8-.4-1.2-.4-.5,0-.3.5-.3.7-.1,1-.2,2-.3,3,0,.3,0,.6.2.8,0,.3-.2.3-.4.2Z"></path><path class="cls-10" d="M103.1,135c.5,0,.6-.3.6-.7,0-1.1,0-2.3,0-3.4,0-.4,0-.9-.7-.9.8-.3,1.5,0,2.3,0-.6.2-.7.6-.6,1.1,0,.9,0,1.9,0,2.8,0,.3-.1.8.4.9.5,0,1,.2,1.4-.3,0-.1,0-.3.3-.3,0,1,0,1.2-1,1.2-.9,0-1.7,0-2.6,0,0,0,0-.2,0-.2Z"></path><path class="cls-32" d="M119.5,130.6c-.5.1-.6.5-.6.9,0,1.1,0,2.2-.2,3.2,0,.5,0,.8.6,1-.7,0-1.4,0-2.2,0,.8-.5,1.1-4.7.3-5.2.7-.2,1.4.1,2.1.1Z"></path><path class="cls-10" d="M99.7,135.2c.8-.6.9-4.7,0-5.2h2.1c-.4.2-.5.6-.5,1,0,1.1,0,2.1,0,3.2,0,.5,0,1,.7,1.1h-2.2Z"></path><path class="cls-57" d="M122.9,136c.1,0,.3,0,.4-.2.2,0,.4,0,.5.2-.3.1-.6,0-.9,0Z"></path><path class="cls-65" d="M67.5,136.3c0,0-.2-.1-.3-.2,0-.2,0-.4.3-.5.1.2,0,.4,0,.7Z"></path><path class="cls-46" d="M130.3,131.5c-.1,0-.3,0-.5.1-.1,0-.2-.1-.1-.2.2-.2.4,0,.6,0Z"></path><path class="cls-55" d="M77.2,107.1h-1c.5-.6.7-2.7.4-3.1.4,0,.8-.1,1.1-.2.3,0,.7,0,.9.3.2.3,0,.6-.1.9-.3.6-.2,1.2.3,1.6.3.2.5.2.6-.2,0-.9.5-1.7.2-2.6,0-.2,0-.2.2-.2.5,0,1,0,1.5,0,.7,0,1.1.5,1.1,1.2,0,.7-.4,1.6-1.1,1.9-1,.4-2,.2-3,.2-.3,0-.4-.4-.6-.7-.1-.2-.1-.5-.4-.4-.3,0-.2.4-.2.6,0,.2.1.4.1.7Z"></path><path class="cls-16" d="M91.6,94.1c-.4,0-.6-.2-.6-.6,0-.4-.2-.8-.7-.7-.4.1-.4.5-.3.9-.8-.1-1.6-.3-2.4-.4.2-1.1.5-2.1.2-3.2,1.2,0,1.5.1,1.4.9-.2-.3-.3-.5-.7-.4,0,.4-.5,1,.5,1,.3,0,0,.4.1.6-.3-.1-.5-.5-.7-.3-.2.2,0,.6,0,.9,0,.3.3.3.5.3.6.2.7-.1.9-.6.2-.7.6-1.4,1-2.2.3,1.3.6,2.4.8,3.5,0,0,0,.2,0,.3Z"></path><path class="cls-16" d="M89.3,97.6c0,.7,0,1.4-.1,2,0,.3,0,.6.4.8-.5.1-.8,0-1.2-.1.3-.5.6-1,.2-1.5-.2-.2-.8-.4-1,0-.2.4-.5.9.1,1.3-.1.1-.3,0-.4,0-.6,0-.6,0-.5-.7.2-.8.4-1.7.1-2.6.3,0,.6,0,.9.2-.3.4-.5.8-.2,1.2.2.3.8.4,1,0,.2-.2.3-.7-.1-1.1.3,0,.6,0,.8,0,.1.1,0,.3,0,.5Z"></path><path class="cls-21" d="M91.6,108c0-.8.1-1.5.2-2.3,0-.3.1-.6-.3-.8.4-.2.7.1,1.2,0-.4.4-.5.9-.3,1.3.2.3.8.5,1.1.3.3-.2.1-.7,0-1.2.2,0,.3,0,.4.1.3.1.5,0,.3.6-.2.8-.4,1.8.1,2.7-.3,0-.6-.2-.9-.2-.2,0-.2-.1,0-.3.3-1,.1-1.2-.7-1.5-.4-.1-.6,0-.5.4,0,.3,0,.6,0,.8-.2.2-.4.1-.7,0Z"></path><path class="cls-16" d="M73.6,107.5c-.7,0-1.1-.6-1-1.3.1-1.1,1.1-2,2.1-2.2.7-.1,1.3.4,1.3,1.1,0,1.1-1.2,2.4-2.4,2.4Z"></path><path class="cls-66" d="M79.2,93c.2-.9.5-1.8.4-2.8,0-.2,0-.3.2-.3.2,0,.5,0,.8,0-.5.3-.3.8-.5,1.2.4,0,.9.2,1.1-.2.2-.3.4-.7,0-1.1h1c-.2,1-.6,2-.3,3.1-.2,0-.6,0-1.1,0,.3-.3.6-.6.5-.9,0-.2.4-.6-.2-.7-.4,0-1,0-1,.6,0,.3-.2.7.2,1-.2.2-.4,0-.6.1-.2,0-.3.1-.3-.2Z"></path><path class="cls-59" d="M91.6,94.1c0,0-.2-.2,0-.3.4.3.6.3.6-.3,0-.6,0-1.1,0-1.7,0-.3,0-.6-.4-.9.7.2,1.2.3,1.6.6.3.3.6.8.3,1.1-.6.8,0,1.3.3,1.9,0,.1.1.3.3.5-1-.2-1-1.3-1.5-1.8-.2.4-.2.8,0,1.2-.5,0-.9-.2-1.2-.3Z"></path><path class="cls-62" d="M84.1,92.4q-.1.7-1.7.7c.4-.9.5-2,.5-3,0-.2,0-.3,0-.3.4,0,.8,0,1.2,0,.4,0,.1.4.1.7-.4-.2-.8-.6-.9.2,0,.3,0,.5.4.4.2,0,.4,0,.3.3,0,.1,0,.5-.4.2,0-.1-.4-.1-.4.1,0,.3-.2.7,0,1,.1.2.4,0,.5-.2,0,0,.1-.2.2-.1Z"></path><path class="cls-62" d="M95.5,106c.3.1.6.3.9.4.4.1.6.4.4.8-.2-.2-.4-.6-.8-.6-.2.5-.1,1,.6,1.1.5,0,0,.4.1.6-.2-.2-.3-.4-.6-.4q-.3.9.8,1.1c.1,0,.1.1.1.2,0,.2,0,.4-.3.3-.5-.1-1-.3-1.4-.5-.1,0-.2-.1-.1-.2.4-.8.2-1.7.2-2.6,0-.2,0-.2.2-.2Z"></path><path class="cls-16" d="M90.2,97.4c1.3,0,1.6.2,1.5,1-.2-.3-.3-.6-.6-.5-.2,0-.1.4-.2.6,0,.4.2.4.5.4.6,0,.2.4.3.8-.3-.4-.5-.7-.7-.5-.2.3-.2.8,0,1.1.2.2.6.3.8-.1.1.9,0,.8-1.7.3.3-.6.5-2.6.2-3.1Z"></path><path class="cls-69" d="M80.9,99.8c.1-1,.6-1.9.3-3,0-.2,0-.2.2-.2.4,0,.8,0,1.2,0,.4,0,.3.3.2.5-.1.5-.2,0-.3,0-.2,0-.6-.2-.6.3,0,.3-.3.7.4.6.3,0,.4,0,.3.4-.1.5-.2,0-.4,0-.2,0-.4,0-.5.2,0,.4-.3.8.1,1.3h-1Z"></path><path class="cls-16" d="M87.1,104.9c-.1-.2-.2-.3-.2-.4-.1-.3-.4-.4-.6-.2-.3.2-.1.5,0,.7.2.3.6.6.7,1,.2.7-.2,1.3-.9,1.4-.7,0-.9-.3-.6-1,.2,0,0,.3.2.4.2.2.3.4.6.2.3-.2.3-.4.1-.7-.2-.3-.4-.5-.6-.8-.4-.6-.2-1.2.3-1.5.6-.2,1,0,.9.9Z"></path><path class="cls-51" d="M78.2,93.4c-.5,0-.8.1-1.2.2.6-.9.5-1.9.7-2.8-.4,0-.7.2-.9.5,0-.5.1-.8.6-.8.4,0,.8-.1,1.2-.2.6-.2.8,0,.6.6-.3-.2-.7-.4-.8,0-.2.7-.3,1.5-.4,2.3,0,0,.2.1.3.3Z"></path><path class="cls-16" d="M91,105.5c0-.5-.4-.6-.7-.5-.3,0-.1.4-.2.6,0,.5,0,1.1-.1,1.7,0,.2.2.4,0,.4-.2,0-.5,0-.7,0,0,0-.2,0,0-.2.4-.5.2-1.1.3-1.7.1-1,0-1-.9-1.1.2-.5.7-.5,2.2,0q.4.1.2.8Z"></path><path class="cls-34" d="M72.2,107.1c-.3,1.2-1.4.7-2.1,1.2.4-1,.8-2,.6-3,0-.2.1-.2.2-.2.3-.1.7-.2,1.2-.3-.8.8-.7,1.7-.9,2.6,0,.3.1.3.3.2.3,0,.6-.2.8-.4Z"></path><path class="cls-51" d="M86.5,93.2c-.2,0-.4,0-.6,0-.3,0-.3,0-.2-.4.2-.9.4-1.9.3-2.9,1.2-.1,1.5,0,1.4.8-.1-.3-.3-.5-.6-.4-.3.1-.2.4-.3.6,0,.4.3.3.5.3.6,0,.1.4.3.6-.3,0-.5-.5-.7-.1-.3.4-.3.9,0,1.4Z"></path><path class="cls-30" d="M85.2,96.7c.2,0,.5,0,.7,0,.7,0,.7.2.4.8,0-.3-.3-.5-.6-.4-.3,0-.2.4-.2.6,0,.7-.2,1.3-.2,2-.2.3-.5.3-.8.2.3-.9.2-1.8.4-2.7-.1-.2,0-.4.2-.5Z"></path><path class="cls-23" d="M84.9,107.1c-.5,0-.9-.1-1.3-.2.5-1,.5-2.1.5-3.1h.9c-.5.7-.6,2.6-.2,3.3Z"></path><path class="cls-16" d="M79.9,96.8c.7.3.6.9.6,1.4-.1,1.3-1.7,2.4-2.7,1.5.3-.2.7,0,1-.1.7-.4,1-1.1.9-1.8,0-.4-.4-.5-.7-.7,0,0-.2-.1-.1-.3h0c.4-.1.7-.1,1.1,0Z"></path><path class="cls-16" d="M78.9,99.7c-.4.3-.7,0-1.1,0-.5-.8-.4-1.7.4-2.4.1,0,.2,0,.3.1,0,.2,0,.4,0,.5-.3.7-.2,1.3.4,1.8Z"></path><path class="cls-74" d="M85.2,96.7c0,.2-.1.3-.2.5-.4-.3-.7-.1-1,.1,0-1.1.7-.5,1.2-.6Z"></path><path class="cls-28" d="M78.4,97.4c0,0-.1-.1-.2-.2.1-.2.3-.5.6-.4,0,0,.1.1.2.2,0,.4-.3.5-.6.5Z"></path><path class="cls-13" d="M84.6,99.8c.3,0,.5,0,.8-.2,0,0,.2,0,.2.1,0,.1,0,.2-.2.2-.3,0-.6,0-.9-.1Z"></path><path class="cls-51" d="M91.6,108c.2,0,.5,0,.7,0,.1,0,.3,0,.3.3-.3,0-.7,0-1-.3Z"></path><path class="cls-28" d="M79.9,96.8c-.4,0-.7,0-1.1,0,.4-.2.7-.2,1.1,0Z"></path><path class="cls-35" d="M89.3,97.6c0-.2,0-.3,0-.5.2,0,.4,0,.4.2,0,.2-.3.1-.3.3Z"></path><path class="cls-60" d="M79.2,93c.1,0,.2.1.3.2-.2.1-.4.2-.5,0,0,0,0-.2.2-.2Z"></path><path class="cls-68" d="M95.5,106c0,0-.1.1-.2.2-.1,0-.2-.2-.4-.3.3-.1.4,0,.6.1Z"></path><path class="cls-24" d="M104,109.1c-.2.2-.5.3-.8.5.3-.9.3-1.9.1-2.7-.1-.7.2-.6.5-.8.2.3,0,.6.1.9.7-.5.5-1.7,1.6-1.8-.3.5-.6,1-.9,1.4-.4.5-.2.8.2,1,0,0,.1,0,.2.1.3.1.5.4.8.3.4-.2.2-.5.2-.8,0-.8,0-1.6,0-2.5.8.6,1.4,1.1,2.3,1.7-.4-.8.1-1.6-.5-2.2.3-.2.5-.2.8-.3-.2,1,0,1.9,0,2.8,0,.1,0,.4,0,.4-.2.2-.3,0-.4-.2-.5-.4-1-.8-1.6-1.2,0,.5,0,1,0,1.4,0,.3.6.5,0,.7-.6.3-1.2.9-1.9.3-.2-.2-.4-.3-.6-.5-.4,0-.2.4-.2.6,0,.3.1.5,0,.8Z"></path><path class="cls-16" d="M116,103.2c0,1-.3,2-.5,3.1-.4-.8-.7-1.5-1.1-2.3-.2.8-.4,1.5-.6,2.3-.4-.6-.6-1.2-.8-1.7-.2-.5-.4-1.1-.8-1.6.3,0,.6-.1.9-.2,0,.7.4,1.3.7,2,.1-.7.3-1.4.5-2.2.4.8.7,1.4,1,2,0-.6.4-1.2.2-1.8,0-.3.3-.1.4-.2.1.2,0,.3,0,.5Z"></path><path class="cls-72" d="M120.7,102.8c2.2,0,3.1.5,3.5,1.9.3,1.1-.4,1.9-1.5,1.7-.7-.1-1.4,0-1.2-1.2.1-.5-.2-1.1-.2-1.7,0-.3-.2-.5-.5-.7Z"></path><path class="cls-16" d="M120,111.9c0,1-.6,1.6-1.5,1.6-1,0-1.8-.8-1.8-1.8,0-.9.7-1.7,1.6-1.7.9,0,1.7.9,1.7,1.9Z"></path><path class="cls-51" d="M118.2,92.3c-.6-.7-1.2-1.4-1.9-2.2,0,.8,0,1.5.4,2.1-.3.1-.6,0-.9,0,.5-1.1-.2-2.2.1-3.5.7.8,1.3,1.5,1.9,2.2-.1-.7.2-1.5-.5-2.1.5,0,.9-.3.8.6-.1.9.1,1.8.2,2.8,0,0-.1,0-.2,0Z"></path><path class="cls-21" d="M117.1,113.4c-.7.3-1.1,0-1.4-.4-.2-.3-.4-.8-.7-.6-.3.2-.2.8.3,1.2-.4,0-.8.1-1.2.2.4-.7.3-2.8-.1-3.3.3-.2.7-.2,1-.2,1.1,0,1.5.5.9,1.5-.1.2-.2.3,0,.5.4.4.7.9,1.3,1.2Z"></path><path class="cls-16" d="M111,103.3c.7,0,1.3.6,1.3,1.5,0,1-.8,2-1.7,2-.8,0-1.3-.6-1.3-1.5,0-1.2.7-2,1.7-2Z"></path><path class="cls-51" d="M122.5,90.9c0-.5,0-1.1-.5-1.5.2-.2.4,0,.6,0,.3,0,.4,0,.2.4-.2.6,0,1.2.1,1.8,0,.4,0,.7,0,1.3-.7-.9-1.4-1.7-2.1-2.5,0,.7,0,1.3.3,1.9,0,.3-.2.2-.3.2-.3,0-.4,0-.3-.4.1-.7,0-1.5-.2-2.3,0-.2,0-.4,0-.7.6.7,1.2,1.5,1.8,2.2q.2,0,.2-.3Z"></path><path class="cls-59" d="M127,105.4c.4,0,.7,0,.5.6,0,.3.1.7.2,1-1.6.2-3-.7-3.2-2.2-.2-.9.3-1.5,1.3-1.3,1.1.1,1.4.4,1.3,1.4-.3-.6-.6-.9-1.1-1-.5-.1-.8,0-.8.6,0,1.1.7,2.1,1.8,2.3.2-.4-.1-.7-.1-1.1,0-.1,0-.2.2-.2Z"></path><path class="cls-16" d="M115.9,97.9c0,1-.6,1.7-1.5,1.7-.9,0-1.5-.7-1.5-1.8,0-1,.6-1.7,1.4-1.7.8,0,1.5.8,1.5,1.8Z"></path><path class="cls-59" d="M113.6,92.4c-.3.2-.5.2-.9.2.3-1.1-.2-2.2,0-3.4.6.7,1.2,1.3,1.9,2.1,0-.9,0-1.5-.4-2.2.5-.2.7,0,.7.5,0,.9,0,1.8.1,2.8-.9-.5-1.2-1.4-2.1-1.9.3.6-.2,1.4.5,1.9Z"></path><path class="cls-16" d="M125.9,91.1c-.4-.6-.8-1.2-1.5-.8-.7.4-.3,1.1,0,1.7.2.6.7,1.1,1.5,1.2-.1-.5,0-1.1-.6-1.5.5,0,1,0,1,.3.1.4,0,.9.1,1.4,0,.2-.2.2-.4.2-1.5.1-2.9-1.7-2.5-3.1,0-.2.2-.4.4-.5.6-.3,1.2,0,1.7.3.4.2.3.6.3.9Z"></path><path class="cls-6" d="M110.6,90.6c-.7-.6-1.4-.5-1.7.5-.1.4-.1.9,0,1.3.1.4.4.7.8.6.5,0,.4-.5.4-.8,0-.7,0-.7.7-.9-.2.3-.3.7-.2,1,.2.8-.4.9-.9,1.1-.6.2-1.2,0-1.4-.6-.6-1.3.5-3,1.9-3,.7,0,.1.6.3.8Z"></path><path class="cls-51" d="M104.4,95.9c-.2-1,.2-1.9-.2-2.8,0-.1,1-1,1.2-1,.6.1.4.5.3.9,0,.1,0,.2,0,.3.5,1,.5,1.1-.3,1.9-.3.3-.5.5-.9.6Z"></path><path class="cls-17" d="M119,106c.3-.7,0-2.9-.4-3.4.5-.2,1.1,0,1.6,0,.3,0,.1.4.2.7-.2-.2-.4-.4-.7-.3-.3.2,0,.4,0,.7,0,.4.2.4.5.4.5,0,.4.3.4.7-.2-.1-.5-.6-.7-.2-.2.3-.1.8.2,1.1.3.3.5,0,.7-.2.3.7.3.7-.4.7-.4,0-.8,0-1.3,0Z"></path><path class="cls-66" d="M111.3,110.8c.4,0,.8-.2,1.1-.2.4,0,.9,0,1.1.5.2.5,0,1-.5,1.3-.8.5-.8.8-.3,1.5-.4,0-.7.1-1.2.2.3-.6.2-1.2.2-1.7,0-.5.3-1.1-.4-1.6Z"></path><path class="cls-17" d="M129.3,104.8c-.2.1-.4-.2-.5,0,0,.4,0,.8.4,1,.2.1.6,0,.7.3,0,.1.1.3-.1.3-.2-.2-.3-.3-.6-.2,0,.4,0,.8.2,1.1.2.3.5.5.8,0,0,0,0,0,.1,0,0,.2.1.4.1.5,0,.3-.3,0-.4,0-.5-.1-.9-.3-1.4-.5-.2,0,0-.2,0-.3-.2-1.1-.2-2.2-.8-3.2.6,0,1.2.4,1.8.6,0,.3-.1.2-.3.1Z"></path><path class="cls-59" d="M119.9,110.1s0,0,0,0c.6,0,1.1-.2,1.2.7,0,.5.4,1,.7,1.7,0-.9.6-1.4.2-2.2,0-.1.1-.2.2-.2.2,0,.4,0,.6.1-.6,1-.6,2.2-1.1,3.3-.8-1.1-1.1-2.5-2-3.5Z"></path><path class="cls-34" d="M116,103.2c0-.2,0-.3,0-.5.5-.2,1,0,1.6-.1-.4,1-.1,1.9.2,2.8.2.5.7.2,1-.2.2.6,0,.9-.7.8-.2,0-.5,0-.7,0-.3,0-.5.1-.4-.4.1-.8-.1-1.7-.2-2.5,0-.2-.2-.2-.3-.2-.3,0-.3.3-.5.4Z"></path><path class="cls-34" d="M107.9,93.9c-.4.3-.9.5-1.4.6,0-1,.2-2-.2-3-.1-.3.3-.3.5-.4.2,0,.2,0,.2.2,0,0,0,.2,0,.3,0,.5.1.9.7.3.1.5,0,.4-.3.7-.5.3-.2.8-.2,1.2.3,0,.5-.1.6-.3.4,0,.2.3.1.4Z"></path><path class="cls-34" d="M128.1,112q0-1,.7-.7c1.2.4,1.2.4,1,1.6,0,.4-.2.9-.2,1.3,0,.3,0,.5-.4.5-.4,0-.3-.3-.2-.6.1-.5.3-.9.4-1.4,0-.2.4-.6,0-.7-.3-.2-.7-.4-1.1-.1,0,0-.1,0-.2.1Z"></path><path class="cls-4" d="M117.1,98.2c0,.4,0,.9.5,1.2h-1.1c.1-.6,0-1.2,0-1.7-.1-.5.2-1.2-.4-1.6,1.6-.3,1.7-.2,1.7.6-.2-.3-.5-.6-.7-.3-.2.3-.2.7,0,1,0,.2-.2.5,0,.7Z"></path><path class="cls-17" d="M125.8,110.5c.5,1.2.2,2.5.9,3.6-.4,0-.9-.1-1.2-.2.6-.8,0-1.6,0-2.4,0-.2,0-.2-.6-.2.4-.3.7-.5,1-.7Z"></path><path class="cls-62" d="M112.1,89.3c-.4.4-.4.9-.2,1.2.2.6-.3,1.5.4,2,0,0,0,.2-.2.2-.2,0-.5,0-.7.1.2-.9,0-1.8,0-2.7,0-.7,0-.7.8-.9Z"></path><path class="cls-16" d="M119.5,92.3c-.2,0-.4.2-.4-.3,0-1,0-2-.4-3h.8c0,1.1,0,2.2.5,3.2,0,.4-.3.1-.5.2Z"></path><path class="cls-20" d="M108.4,113.9c.2-.9,1-.6,1.4-.8-.3.5-.8.6-1.4.8Z"></path><path class="cls-42" d="M107,91.4c0,0-.1-.1-.2-.2.2-.1.4-.2.6-.4.1,0,.2-.2.4-.1.1.1,0,.3,0,.4,0,.3-.2,0-.4,0-.2,0-.3.1-.5.2Z"></path><path class="cls-28" d="M117.1,98.2c-.2-.3,0-.5,0-.7.5-.1,1-.2.7.6-.3,0-.7-.8-.7.1Z"></path><path class="cls-25" d="M104,109.1c-.2-.4-.1-.8-.1-1.3,0-.2.1-.3.3-.1-.2.4-.3.8,0,1.1,0,0,0,.1,0,.2,0,0-.2,0-.3.1Z"></path><path class="cls-57" d="M128,113.9c0,.2,0,.3-.2.3-.2,0-.4-.1-.4-.4,0-.2,0-.3.2-.2.2,0,.3.2.4.3Z"></path><path class="cls-28" d="M123.5,113.3c0,.1-.1.3-.3.2-.1,0-.3-.1-.3-.3,0-.2.1-.3.3-.3.2,0,.2.2.3.3Z"></path><path class="cls-9" d="M127.5,112.7c-.1,0-.3-.1-.3-.3,0-.2.1-.3.3-.3.1,0,.3.2.3.3,0,.1,0,.2-.2.2Z"></path><path class="cls-58" d="M129.3,104.8c.1,0,.2,0,.3-.1.3.2.1.4.2.8-.2-.3-.3-.4-.5-.6Z"></path><path class="cls-15" d="M107.9,93.9c0-.2,0-.3-.1-.4,0-.1.1-.3.2-.2.2.2.2.4,0,.6Z"></path><path class="cls-52" d="M120.9,92.4l.3-.2c.1,0,.3.1.2.2-.2.2-.4,0-.5,0Z"></path><path class="cls-45" d="M119.5,92.3c.2,0,.3,0,.5-.2.1,0,.2.1.1.2-.2.2-.4,0-.6,0Z"></path><path class="cls-39" d="M122.5,90.9c.1.2.2.4,0,.6,0,0-.2-.1-.2-.2.1,0,.1-.2.2-.3Z"></path><path class="cls-45" d="M129.7,106.5c0-.1,0-.2.1-.3.1.2.2.4,0,.5,0,0-.2,0-.2-.2Z"></path><path class="cls-48" d="M127,105.4l-.2.2c-.1,0-.3-.1-.4-.2.2-.2.4-.1.6,0Z"></path><path class="cls-19" d="M92,13c0,1.6-.9,2.4-2.5,2.3-.4,0-.6-.2-.7-.6-.2-1.3-.4-2.6-.6-3.9-.1-.9-.1-1,.8-1.1,1.1-.1,1.9.3,2.4,1.3.3.5.5,1.4.5,2Z"></path><path class="cls-19" d="M166.3,89.3c-.7,0-1.5,0-2.3-.3-3.1-.9-4-4.2-1.8-6.5,1.5-1.5,3.4-1.9,5.4-1.7.7,0,1.3.2,2,.4,3.4,1,3.2,4.8,1.6,6.5-1.3,1.4-2.9,1.8-4.9,1.8Z"></path><path class="cls-19" d="M166.8,64.4c2.1,0,3.4.7,4,2.4.6,1.8,0,3.7-1.5,4.9-1.8,1.4-4,1.9-6.2,1.6-2.6-.3-3.8-2.8-2.8-5.2.8-2.1,2.6-3,4.6-3.5.6-.2,1.2-.2,1.9-.2Z"></path><path class="cls-19" d="M35,73.9c.8,0,1.8.1,2.7.4,3,1,3,4,1.8,5.8-1.4,2.1-3.6,2.5-5.9,2.4-.5,0-1-.1-1.5-.2-1.4-.3-2.5-1-2.9-2.5-.4-1.5-.2-3,.9-4.1,1.3-1.4,2.9-1.8,4.9-1.7Z"></path><path class="cls-10" d="M75.7,15.7c1,1.2,1.9,2.3,2.9,3.4-.9.3-1.7.7-2.5.9-.4.1-.4-.1-.4-.4,0-1.2,0-2.5,0-3.9Z"></path><path class="cls-11" d="M159.3,138c0,1.8-1.2,2.7-2.8,2.1-.4-.1-.6-.4-.5-.8.2-1.1.4-2.1.6-3.2,0-.4.3-.5.7-.5,1.2.2,2,1.1,2,2.3Z"></path><path class="cls-11" d="M45.1,138.4c0,.8-.2,1.4-.9,1.7-.7.3-1.6,0-2.1-.7-.5-.6-.7-1.4-.6-2.1,0-1,.4-1.4,1.3-1.6.8-.2,1.7.3,2,1.2.2.5.4,1,.3,1.5Z"></path><path class="cls-11" d="M145.9,135.8c0,.5-.1.9-.3,1.4-.2.5-.6.9-1.2,1-.7,0-1.2-.2-1.6-.7-.6-.9-.6-2.4,0-3.3.7-1,2.1-.9,2.8.3.3.4.4.9.3,1.4Z"></path><path class="cls-11" d="M69.3,133.8c0-1.3.3-1.9,1.1-2,1-.2,1.8.2,2.2,1.1.3.6.4,1.2.3,1.9-.1.9-.6,1.4-1.3,1.5-.7.1-1.6-.3-1.9-1-.2-.5-.4-1-.4-1.4Z"></path><path class="cls-11" d="M152.6,136.7c0,.4,0,.8-.2,1.2-.2.7-.6,1.1-1.4,1.2-.7,0-1.4-.4-1.7-1.1-.5-1-.3-2.1.3-3,.6-.9,2.2-.7,2.8.3.2.4.3.8.3,1.3Z"></path><path class="cls-14" d="M59.8,134.5c0,.4,0,.7-.3.9-.4.2-.8,0-.9-.4,0-.3-.1-.6-.1-1,0-.3-.3-.6.1-.8.4-.1.7,0,1,.4.2.3.3.6.3.9Z"></path><path class="cls-7" d="M81.7,105.1c0,.9-.4,1.5-1.1,1.6-.5,0-.7,0-.6-.6,0-.5.2-.9.2-1.4,0-.3,0-.6.3-.7.4,0,.8.1,1,.5,0,.2.1.4.1.6Z"></path><path class="cls-27" d="M78,104.7c0,.3-.1.6-.6.7-.2,0-.2-.2-.2-.3.2-.3,0-.8.4-1,.3,0,.3.3.3.6Z"></path><path class="cls-64" d="M90.5,91.8c.2.2.2.4,0,.6,0,0-.2,0-.2,0-.1-.2,0-.4.1-.6Z"></path><path class="cls-37" d="M75.2,105.5c0,.6-.2,1.1-.6,1.5-.4.3-.8.4-1.2,0-.5-.7.2-2.2,1-2.3.6,0,.8.2.8.9Z"></path><path class="cls-36" d="M92.8,91.6c.4,0,.4.3.5.5,0,.2,0,.5,0,.6,0,0-.2,0-.3,0-.3-.1-.1-.4-.2-.6,0-.2,0-.4,0-.7Z"></path><path class="cls-73" d="M78.4,97.4c.2-.2.4-.3.6-.5.7,0,.9.4.9,1,0,.9-.3,1.4-1.1,1.7-.7-.3-.9-.7-.7-1.5,0-.3.2-.5.3-.8Z"></path><path class="cls-14" d="M123.7,105.1c0,.5-.2.8-.6.9-.4,0-.8,0-.9-.6,0-.5-.2-1.1-.3-1.6,0-.2-.1-.4,0-.6.2-.1.4,0,.6.1.8.4,1,1.1,1.1,1.8Z"></path><path class="cls-31" d="M117.4,111.5c0-.4,0-.9.6-1.1.6-.1.9.2,1.2.7.2.3.3.7.2,1.1,0,.4,0,.8-.6.9-.5,0-.8-.1-1.1-.5-.2-.4-.3-.7-.3-1.2Z"></path><path class="cls-63" d="M115.5,111.3c0,.3,0,.7-.4.6-.5,0-.2-.6-.3-.9,0-.2,0-.5.2-.4.4,0,.5.4.5.7Z"></path><path class="cls-73" d="M111.7,105.3c-.1.5,0,1.1-.9,1.1-.7,0-.9-.5-.9-1.1,0,0,0,0,0,0,0-1,.2-1.5.8-1.5.6,0,1,.7,1,1.6Z"></path><path class="cls-31" d="M115.3,98c0,.6,0,1.1-.6,1.2-.6.1-.9-.4-1.1-.9-.1-.4-.2-.8,0-1.2,0-.4.2-.6.6-.7.4,0,.6.1.8.4.2.4.3.8.3,1.1Z"></path><path class="cls-33" d="M105,95.2c-.2-.3,0-.5,0-.8,0-.2,0-.4.2-.5,0,0,.2,0,.3,0,.2.2.2.4.2.6,0,.3-.2.5-.5.6Z"></path><path class="cls-40" d="M105.1,92.5c.2.5.1.8-.2,1.2,0-.4-.1-.8.2-1.2Z"></path><path class="cls-33" d="M112.3,112.3c0-.4,0-.7,0-1,0-.1,0-.3.2-.4.2,0,.3,0,.4.3.2.4,0,.9-.6,1.1Z"></path></g></svg>